<mxfile host="app.diagrams.net" modified="2023-03-28T00:52:38.360Z" agent="Mozilla/5.0 (Macintosh; Intel Mac OS X 10_15_7) AppleWebKit/537.36 (KHTML, like Gecko) Chrome/111.0.0.0 Safari/537.36" etag="6BqHSA_IzZb_Fdv9nVes" version="21.1.1" type="github">
  <diagram name="Page-1" id="SnpOKYaOga8Zz95fMb79">
    <mxGraphModel dx="1434" dy="714" grid="1" gridSize="10" guides="1" tooltips="1" connect="1" arrows="1" fold="1" page="1" pageScale="1" pageWidth="850" pageHeight="1100" math="0" shadow="0">
      <root>
        <mxCell id="0" />
        <mxCell id="1" parent="0" />
        <mxCell id="HrMAnOmM2nn3nkN1Qt7s-80" value="" style="rounded=0;whiteSpace=wrap;html=1;fillColor=#DB5B00;fontColor=#000000;strokeColor=#C73500;" vertex="1" parent="1">
          <mxGeometry x="20" y="432.5" width="830" height="317.5" as="geometry" />
        </mxCell>
        <mxCell id="HrMAnOmM2nn3nkN1Qt7s-79" value="" style="rounded=0;whiteSpace=wrap;html=1;fillColor=#1ba1e2;fontColor=#ffffff;strokeColor=#006EAF;" vertex="1" parent="1">
          <mxGeometry x="130" y="257.5" width="699" height="165" as="geometry" />
        </mxCell>
        <mxCell id="HrMAnOmM2nn3nkN1Qt7s-78" value="" style="rounded=0;whiteSpace=wrap;html=1;fillColor=#d5e8d4;strokeColor=#82b366;fillStyle=auto;" vertex="1" parent="1">
          <mxGeometry x="197.75" y="10" width="632.25" height="240" as="geometry" />
        </mxCell>
        <mxCell id="HrMAnOmM2nn3nkN1Qt7s-43" style="edgeStyle=orthogonalEdgeStyle;rounded=0;orthogonalLoop=1;jettySize=auto;html=1;exitX=0.75;exitY=1;exitDx=0;exitDy=0;entryX=0.75;entryY=0;entryDx=0;entryDy=0;" edge="1" parent="1" source="HrMAnOmM2nn3nkN1Qt7s-1" target="HrMAnOmM2nn3nkN1Qt7s-2">
          <mxGeometry relative="1" as="geometry" />
        </mxCell>
        <mxCell id="HrMAnOmM2nn3nkN1Qt7s-55" style="edgeStyle=orthogonalEdgeStyle;rounded=0;orthogonalLoop=1;jettySize=auto;html=1;exitX=0;exitY=0.5;exitDx=0;exitDy=0;entryX=0.5;entryY=0;entryDx=0;entryDy=0;" edge="1" parent="1" source="HrMAnOmM2nn3nkN1Qt7s-1" target="HrMAnOmM2nn3nkN1Qt7s-5">
          <mxGeometry relative="1" as="geometry" />
        </mxCell>
        <mxCell id="HrMAnOmM2nn3nkN1Qt7s-117" style="edgeStyle=orthogonalEdgeStyle;rounded=0;orthogonalLoop=1;jettySize=auto;html=1;exitX=0;exitY=0.75;exitDx=0;exitDy=0;entryX=0.373;entryY=0.043;entryDx=0;entryDy=0;entryPerimeter=0;" edge="1" parent="1" source="HrMAnOmM2nn3nkN1Qt7s-1" target="HrMAnOmM2nn3nkN1Qt7s-11">
          <mxGeometry relative="1" as="geometry" />
        </mxCell>
        <mxCell id="HrMAnOmM2nn3nkN1Qt7s-126" value="" style="edgeStyle=orthogonalEdgeStyle;rounded=0;orthogonalLoop=1;jettySize=auto;html=1;" edge="1" parent="1" source="HrMAnOmM2nn3nkN1Qt7s-1" target="HrMAnOmM2nn3nkN1Qt7s-118">
          <mxGeometry relative="1" as="geometry" />
        </mxCell>
        <mxCell id="HrMAnOmM2nn3nkN1Qt7s-1" value="Activity/Screen" style="rounded=1;whiteSpace=wrap;html=1;" vertex="1" parent="1">
          <mxGeometry x="360" y="20" width="160" height="80" as="geometry" />
        </mxCell>
        <mxCell id="HrMAnOmM2nn3nkN1Qt7s-32" style="edgeStyle=orthogonalEdgeStyle;rounded=0;orthogonalLoop=1;jettySize=auto;html=1;exitX=0.75;exitY=1;exitDx=0;exitDy=0;entryX=0.75;entryY=0;entryDx=0;entryDy=0;" edge="1" parent="1" source="HrMAnOmM2nn3nkN1Qt7s-2" target="HrMAnOmM2nn3nkN1Qt7s-3">
          <mxGeometry relative="1" as="geometry" />
        </mxCell>
        <mxCell id="HrMAnOmM2nn3nkN1Qt7s-42" style="edgeStyle=orthogonalEdgeStyle;rounded=0;orthogonalLoop=1;jettySize=auto;html=1;exitX=0.25;exitY=0;exitDx=0;exitDy=0;entryX=0.25;entryY=1;entryDx=0;entryDy=0;" edge="1" parent="1" source="HrMAnOmM2nn3nkN1Qt7s-2" target="HrMAnOmM2nn3nkN1Qt7s-1">
          <mxGeometry relative="1" as="geometry" />
        </mxCell>
        <mxCell id="HrMAnOmM2nn3nkN1Qt7s-52" style="edgeStyle=orthogonalEdgeStyle;rounded=0;orthogonalLoop=1;jettySize=auto;html=1;entryX=0.9;entryY=-0.033;entryDx=0;entryDy=0;entryPerimeter=0;" edge="1" parent="1" source="HrMAnOmM2nn3nkN1Qt7s-2" target="HrMAnOmM2nn3nkN1Qt7s-5">
          <mxGeometry relative="1" as="geometry">
            <Array as="points">
              <mxPoint x="261" y="210" />
            </Array>
          </mxGeometry>
        </mxCell>
        <mxCell id="HrMAnOmM2nn3nkN1Qt7s-115" style="edgeStyle=orthogonalEdgeStyle;rounded=0;orthogonalLoop=1;jettySize=auto;html=1;exitX=0;exitY=0;exitDx=0;exitDy=0;entryX=1;entryY=0.75;entryDx=0;entryDy=0;" edge="1" parent="1" source="HrMAnOmM2nn3nkN1Qt7s-2" target="HrMAnOmM2nn3nkN1Qt7s-11">
          <mxGeometry relative="1" as="geometry">
            <Array as="points">
              <mxPoint x="380" y="163" />
              <mxPoint x="359" y="163" />
            </Array>
          </mxGeometry>
        </mxCell>
        <mxCell id="HrMAnOmM2nn3nkN1Qt7s-125" style="edgeStyle=orthogonalEdgeStyle;rounded=0;orthogonalLoop=1;jettySize=auto;html=1;exitX=1;exitY=0.5;exitDx=0;exitDy=0;entryX=0;entryY=0.75;entryDx=0;entryDy=0;" edge="1" parent="1" source="HrMAnOmM2nn3nkN1Qt7s-2" target="HrMAnOmM2nn3nkN1Qt7s-118">
          <mxGeometry relative="1" as="geometry" />
        </mxCell>
        <mxCell id="HrMAnOmM2nn3nkN1Qt7s-2" value="ViewModel" style="rounded=1;whiteSpace=wrap;html=1;" vertex="1" parent="1">
          <mxGeometry x="380" y="140" width="120" height="80" as="geometry" />
        </mxCell>
        <mxCell id="HrMAnOmM2nn3nkN1Qt7s-31" style="edgeStyle=orthogonalEdgeStyle;rounded=0;orthogonalLoop=1;jettySize=auto;html=1;exitX=0.25;exitY=0;exitDx=0;exitDy=0;entryX=0.25;entryY=1;entryDx=0;entryDy=0;" edge="1" parent="1" source="HrMAnOmM2nn3nkN1Qt7s-3" target="HrMAnOmM2nn3nkN1Qt7s-2">
          <mxGeometry relative="1" as="geometry" />
        </mxCell>
        <mxCell id="HrMAnOmM2nn3nkN1Qt7s-33" style="edgeStyle=orthogonalEdgeStyle;rounded=0;orthogonalLoop=1;jettySize=auto;html=1;exitX=0.25;exitY=1;exitDx=0;exitDy=0;entryX=0.313;entryY=-0.05;entryDx=0;entryDy=0;entryPerimeter=0;" edge="1" parent="1" source="HrMAnOmM2nn3nkN1Qt7s-3" target="HrMAnOmM2nn3nkN1Qt7s-4">
          <mxGeometry relative="1" as="geometry" />
        </mxCell>
        <mxCell id="HrMAnOmM2nn3nkN1Qt7s-57" style="edgeStyle=orthogonalEdgeStyle;rounded=0;orthogonalLoop=1;jettySize=auto;html=1;exitX=1;exitY=0.25;exitDx=0;exitDy=0;entryX=0;entryY=0.25;entryDx=0;entryDy=0;" edge="1" parent="1" source="HrMAnOmM2nn3nkN1Qt7s-3" target="HrMAnOmM2nn3nkN1Qt7s-36">
          <mxGeometry relative="1" as="geometry" />
        </mxCell>
        <mxCell id="HrMAnOmM2nn3nkN1Qt7s-107" style="edgeStyle=orthogonalEdgeStyle;rounded=0;orthogonalLoop=1;jettySize=auto;html=1;exitX=0;exitY=0.5;exitDx=0;exitDy=0;entryX=1;entryY=0.5;entryDx=0;entryDy=0;" edge="1" parent="1" source="HrMAnOmM2nn3nkN1Qt7s-3" target="HrMAnOmM2nn3nkN1Qt7s-5">
          <mxGeometry relative="1" as="geometry" />
        </mxCell>
        <mxCell id="HrMAnOmM2nn3nkN1Qt7s-3" value="Domain" style="rounded=1;whiteSpace=wrap;html=1;" vertex="1" parent="1">
          <mxGeometry x="380" y="310" width="120" height="60" as="geometry" />
        </mxCell>
        <mxCell id="HrMAnOmM2nn3nkN1Qt7s-92" style="edgeStyle=orthogonalEdgeStyle;rounded=0;orthogonalLoop=1;jettySize=auto;html=1;exitX=0.75;exitY=0;exitDx=0;exitDy=0;entryX=0.825;entryY=0.983;entryDx=0;entryDy=0;entryPerimeter=0;" edge="1" parent="1" source="HrMAnOmM2nn3nkN1Qt7s-4" target="HrMAnOmM2nn3nkN1Qt7s-3">
          <mxGeometry relative="1" as="geometry" />
        </mxCell>
        <mxCell id="HrMAnOmM2nn3nkN1Qt7s-94" style="edgeStyle=orthogonalEdgeStyle;rounded=0;orthogonalLoop=1;jettySize=auto;html=1;exitX=1;exitY=0.25;exitDx=0;exitDy=0;entryX=0;entryY=0.25;entryDx=0;entryDy=0;" edge="1" parent="1" source="HrMAnOmM2nn3nkN1Qt7s-4" target="HrMAnOmM2nn3nkN1Qt7s-71">
          <mxGeometry relative="1" as="geometry" />
        </mxCell>
        <mxCell id="HrMAnOmM2nn3nkN1Qt7s-4" value="Data" style="rounded=1;whiteSpace=wrap;html=1;" vertex="1" parent="1">
          <mxGeometry x="360" y="495" width="160" height="80" as="geometry" />
        </mxCell>
        <mxCell id="HrMAnOmM2nn3nkN1Qt7s-70" style="edgeStyle=orthogonalEdgeStyle;rounded=0;orthogonalLoop=1;jettySize=auto;html=1;entryX=0.5;entryY=0;entryDx=0;entryDy=0;" edge="1" parent="1" source="HrMAnOmM2nn3nkN1Qt7s-5" target="HrMAnOmM2nn3nkN1Qt7s-62">
          <mxGeometry relative="1" as="geometry" />
        </mxCell>
        <mxCell id="HrMAnOmM2nn3nkN1Qt7s-5" value="Core" style="rounded=1;whiteSpace=wrap;html=1;" vertex="1" parent="1">
          <mxGeometry x="152.5" y="310" width="120" height="60" as="geometry" />
        </mxCell>
        <mxCell id="HrMAnOmM2nn3nkN1Qt7s-110" style="edgeStyle=orthogonalEdgeStyle;rounded=0;orthogonalLoop=1;jettySize=auto;html=1;exitX=1;exitY=0.5;exitDx=0;exitDy=0;entryX=0;entryY=0.25;entryDx=0;entryDy=0;dashed=1;strokeColor=#FF0000;" edge="1" parent="1" source="HrMAnOmM2nn3nkN1Qt7s-6" target="HrMAnOmM2nn3nkN1Qt7s-78">
          <mxGeometry relative="1" as="geometry">
            <Array as="points">
              <mxPoint x="180" y="70" />
              <mxPoint x="180" y="70" />
            </Array>
          </mxGeometry>
        </mxCell>
        <mxCell id="HrMAnOmM2nn3nkN1Qt7s-111" style="edgeStyle=orthogonalEdgeStyle;rounded=0;orthogonalLoop=1;jettySize=auto;html=1;dashed=1;fillColor=#e51400;strokeColor=#FF0000;" edge="1" parent="1" source="HrMAnOmM2nn3nkN1Qt7s-6">
          <mxGeometry relative="1" as="geometry">
            <mxPoint x="70" y="420" as="targetPoint" />
          </mxGeometry>
        </mxCell>
        <mxCell id="HrMAnOmM2nn3nkN1Qt7s-112" style="edgeStyle=orthogonalEdgeStyle;rounded=0;orthogonalLoop=1;jettySize=auto;html=1;exitX=1;exitY=1;exitDx=0;exitDy=0;entryX=0.041;entryY=-0.009;entryDx=0;entryDy=0;entryPerimeter=0;dashed=1;fillColor=#e51400;strokeColor=#FF0000;" edge="1" parent="1" source="HrMAnOmM2nn3nkN1Qt7s-6" target="HrMAnOmM2nn3nkN1Qt7s-79">
          <mxGeometry relative="1" as="geometry" />
        </mxCell>
        <mxCell id="HrMAnOmM2nn3nkN1Qt7s-6" value="buildSrc" style="rounded=1;whiteSpace=wrap;html=1;fillColor=#e3c800;fontColor=#000000;strokeColor=#B09500;" vertex="1" parent="1">
          <mxGeometry x="10" y="40" width="120" height="60" as="geometry" />
        </mxCell>
        <mxCell id="HrMAnOmM2nn3nkN1Qt7s-26" style="edgeStyle=orthogonalEdgeStyle;rounded=0;orthogonalLoop=1;jettySize=auto;html=1;entryX=0.425;entryY=1;entryDx=0;entryDy=0;entryPerimeter=0;" edge="1" parent="1" source="HrMAnOmM2nn3nkN1Qt7s-7" target="HrMAnOmM2nn3nkN1Qt7s-4">
          <mxGeometry relative="1" as="geometry">
            <Array as="points">
              <mxPoint x="428" y="680" />
            </Array>
          </mxGeometry>
        </mxCell>
        <mxCell id="HrMAnOmM2nn3nkN1Qt7s-7" value="" style="rounded=1;whiteSpace=wrap;html=1;" vertex="1" parent="1">
          <mxGeometry x="30" y="580" width="290" height="160" as="geometry" />
        </mxCell>
        <mxCell id="HrMAnOmM2nn3nkN1Qt7s-11" value="" style="shape=mxgraph.gcp2.doubleRect;strokeColor=#dddddd;shadow=1;strokeWidth=1;" vertex="1" parent="1">
          <mxGeometry x="220" y="110" width="118" height="70" as="geometry" />
        </mxCell>
        <mxCell id="HrMAnOmM2nn3nkN1Qt7s-12" value="&lt;font color=&quot;#000000&quot;&gt;Imdb&lt;/font&gt;" style="sketch=0;dashed=0;connectable=0;html=1;fillColor=#5184F3;strokeColor=none;shape=mxgraph.gcp2.firebase;part=1;labelPosition=right;verticalLabelPosition=middle;align=left;verticalAlign=middle;spacingLeft=5;fontColor=#999999;fontSize=12;" vertex="1" parent="HrMAnOmM2nn3nkN1Qt7s-11">
          <mxGeometry width="32.4" height="45" relative="1" as="geometry">
            <mxPoint x="5" y="7" as="offset" />
          </mxGeometry>
        </mxCell>
        <mxCell id="HrMAnOmM2nn3nkN1Qt7s-28" style="edgeStyle=orthogonalEdgeStyle;rounded=0;orthogonalLoop=1;jettySize=auto;html=1;entryX=0.65;entryY=1.05;entryDx=0;entryDy=0;entryPerimeter=0;" edge="1" parent="1" source="HrMAnOmM2nn3nkN1Qt7s-14" target="HrMAnOmM2nn3nkN1Qt7s-4">
          <mxGeometry relative="1" as="geometry" />
        </mxCell>
        <mxCell id="HrMAnOmM2nn3nkN1Qt7s-14" value="" style="rounded=0;whiteSpace=wrap;html=1;" vertex="1" parent="1">
          <mxGeometry x="540" y="605" width="270" height="110" as="geometry" />
        </mxCell>
        <mxCell id="HrMAnOmM2nn3nkN1Qt7s-15" value="" style="image;html=1;image=img/lib/clip_art/networking/Cloud_Rack_128x128.png" vertex="1" parent="1">
          <mxGeometry x="708" y="625" width="80" height="80" as="geometry" />
        </mxCell>
        <mxCell id="HrMAnOmM2nn3nkN1Qt7s-16" value="Room" style="shape=cylinder3;whiteSpace=wrap;html=1;boundedLbl=1;backgroundOutline=1;size=15;fillColor=#eeeeee;strokeColor=#36393d;" vertex="1" parent="1">
          <mxGeometry x="220" y="615" width="60" height="80" as="geometry" />
        </mxCell>
        <mxCell id="HrMAnOmM2nn3nkN1Qt7s-17" value="Query (DAO)" style="rounded=0;whiteSpace=wrap;html=1;" vertex="1" parent="1">
          <mxGeometry x="50" y="665" width="90" height="30" as="geometry" />
        </mxCell>
        <mxCell id="HrMAnOmM2nn3nkN1Qt7s-18" value="Entity" style="rounded=0;whiteSpace=wrap;html=1;" vertex="1" parent="1">
          <mxGeometry x="50" y="630" width="90" height="30" as="geometry" />
        </mxCell>
        <mxCell id="HrMAnOmM2nn3nkN1Qt7s-19" value="DataBase" style="rounded=0;whiteSpace=wrap;html=1;" vertex="1" parent="1">
          <mxGeometry x="50" y="590" width="90" height="30" as="geometry" />
        </mxCell>
        <mxCell id="HrMAnOmM2nn3nkN1Qt7s-20" value="Converter" style="rounded=0;whiteSpace=wrap;html=1;" vertex="1" parent="1">
          <mxGeometry x="50" y="700" width="90" height="30" as="geometry" />
        </mxCell>
        <mxCell id="HrMAnOmM2nn3nkN1Qt7s-21" value="Response" style="rounded=0;whiteSpace=wrap;html=1;" vertex="1" parent="1">
          <mxGeometry x="560" y="635" width="90" height="40" as="geometry" />
        </mxCell>
        <mxCell id="HrMAnOmM2nn3nkN1Qt7s-104" style="edgeStyle=orthogonalEdgeStyle;rounded=0;orthogonalLoop=1;jettySize=auto;html=1;exitX=0;exitY=0.75;exitDx=0;exitDy=0;entryX=1;entryY=0.75;entryDx=0;entryDy=0;" edge="1" parent="1" source="HrMAnOmM2nn3nkN1Qt7s-36" target="HrMAnOmM2nn3nkN1Qt7s-3">
          <mxGeometry relative="1" as="geometry" />
        </mxCell>
        <mxCell id="HrMAnOmM2nn3nkN1Qt7s-36" value="" style="rounded=1;whiteSpace=wrap;html=1;" vertex="1" parent="1">
          <mxGeometry x="589" y="270" width="227.5" height="140" as="geometry" />
        </mxCell>
        <mxCell id="HrMAnOmM2nn3nkN1Qt7s-37" value="Repository" style="rounded=0;whiteSpace=wrap;html=1;" vertex="1" parent="1">
          <mxGeometry x="600.5" y="280" width="92.5" height="30" as="geometry" />
        </mxCell>
        <mxCell id="HrMAnOmM2nn3nkN1Qt7s-38" value="UseCase" style="rounded=0;whiteSpace=wrap;html=1;" vertex="1" parent="1">
          <mxGeometry x="600.5" y="320" width="95" height="30" as="geometry" />
        </mxCell>
        <mxCell id="HrMAnOmM2nn3nkN1Qt7s-56" value="Mapper" style="rounded=0;whiteSpace=wrap;html=1;" vertex="1" parent="1">
          <mxGeometry x="599.25" y="365" width="95" height="30" as="geometry" />
        </mxCell>
        <mxCell id="HrMAnOmM2nn3nkN1Qt7s-58" value="Model" style="rounded=0;whiteSpace=wrap;html=1;" vertex="1" parent="1">
          <mxGeometry x="707" y="295" width="92" height="25" as="geometry" />
        </mxCell>
        <mxCell id="HrMAnOmM2nn3nkN1Qt7s-59" value="DI" style="rounded=0;whiteSpace=wrap;html=1;" vertex="1" parent="1">
          <mxGeometry x="723" y="335" width="60" height="30" as="geometry" />
        </mxCell>
        <mxCell id="HrMAnOmM2nn3nkN1Qt7s-62" value="" style="rounded=1;whiteSpace=wrap;html=1;" vertex="1" parent="1">
          <mxGeometry x="77.5" y="447.5" width="205" height="120" as="geometry" />
        </mxCell>
        <mxCell id="HrMAnOmM2nn3nkN1Qt7s-63" value="Urls" style="rounded=0;whiteSpace=wrap;html=1;" vertex="1" parent="1">
          <mxGeometry x="82.5" y="457.5" width="80" height="25" as="geometry" />
        </mxCell>
        <mxCell id="HrMAnOmM2nn3nkN1Qt7s-64" value="Interceptor" style="rounded=0;whiteSpace=wrap;html=1;" vertex="1" parent="1">
          <mxGeometry x="82.5" y="487.5" width="80" height="30" as="geometry" />
        </mxCell>
        <mxCell id="HrMAnOmM2nn3nkN1Qt7s-65" value="ErrorFactory" style="rounded=0;whiteSpace=wrap;html=1;" vertex="1" parent="1">
          <mxGeometry x="182.5" y="457.5" width="90" height="27.5" as="geometry" />
        </mxCell>
        <mxCell id="HrMAnOmM2nn3nkN1Qt7s-66" value="StateScreen" style="rounded=0;whiteSpace=wrap;html=1;" vertex="1" parent="1">
          <mxGeometry x="82.5" y="527.5" width="80" height="30" as="geometry" />
        </mxCell>
        <mxCell id="HrMAnOmM2nn3nkN1Qt7s-67" value="Provider" style="rounded=0;whiteSpace=wrap;html=1;" vertex="1" parent="1">
          <mxGeometry x="182.5" y="492.5" width="90" height="30" as="geometry" />
        </mxCell>
        <mxCell id="HrMAnOmM2nn3nkN1Qt7s-69" value="Security" style="rounded=0;whiteSpace=wrap;html=1;" vertex="1" parent="1">
          <mxGeometry x="182.5" y="527.5" width="90" height="30" as="geometry" />
        </mxCell>
        <mxCell id="HrMAnOmM2nn3nkN1Qt7s-71" value="" style="rounded=1;whiteSpace=wrap;html=1;" vertex="1" parent="1">
          <mxGeometry x="636.5" y="490" width="180" height="90" as="geometry" />
        </mxCell>
        <mxCell id="HrMAnOmM2nn3nkN1Qt7s-72" value="Response" style="rounded=0;whiteSpace=wrap;html=1;" vertex="1" parent="1">
          <mxGeometry x="645.5" y="495" width="72" height="30" as="geometry" />
        </mxCell>
        <mxCell id="HrMAnOmM2nn3nkN1Qt7s-96" style="edgeStyle=orthogonalEdgeStyle;rounded=0;orthogonalLoop=1;jettySize=auto;html=1;entryX=1;entryY=0.75;entryDx=0;entryDy=0;" edge="1" parent="1" source="HrMAnOmM2nn3nkN1Qt7s-73" target="HrMAnOmM2nn3nkN1Qt7s-4">
          <mxGeometry relative="1" as="geometry" />
        </mxCell>
        <mxCell id="HrMAnOmM2nn3nkN1Qt7s-73" value="Mapper" style="rounded=0;whiteSpace=wrap;html=1;" vertex="1" parent="1">
          <mxGeometry x="645.5" y="540" width="71" height="25" as="geometry" />
        </mxCell>
        <mxCell id="HrMAnOmM2nn3nkN1Qt7s-74" value="DI" style="rounded=0;whiteSpace=wrap;html=1;" vertex="1" parent="1">
          <mxGeometry x="726.5" y="495" width="80" height="30" as="geometry" />
        </mxCell>
        <mxCell id="HrMAnOmM2nn3nkN1Qt7s-75" value="Network" style="rounded=0;whiteSpace=wrap;html=1;" vertex="1" parent="1">
          <mxGeometry x="730.5" y="540" width="76" height="25" as="geometry" />
        </mxCell>
        <mxCell id="HrMAnOmM2nn3nkN1Qt7s-81" value="&lt;h3&gt;&lt;font color=&quot;#ffffff&quot;&gt;Flow&lt;/font&gt;&lt;/h3&gt;" style="text;html=1;strokeColor=none;fillColor=none;align=center;verticalAlign=middle;whiteSpace=wrap;rounded=0;" vertex="1" parent="1">
          <mxGeometry x="395" y="595" width="60" height="30" as="geometry" />
        </mxCell>
        <mxCell id="HrMAnOmM2nn3nkN1Qt7s-90" value="&lt;h3&gt;&lt;font color=&quot;#ffffff&quot;&gt;Flow&lt;/font&gt;&lt;/h3&gt;" style="text;html=1;strokeColor=none;fillColor=none;align=center;verticalAlign=middle;whiteSpace=wrap;rounded=0;" vertex="1" parent="1">
          <mxGeometry x="440" y="615" width="60" height="30" as="geometry" />
        </mxCell>
        <mxCell id="HrMAnOmM2nn3nkN1Qt7s-93" value="&lt;h3&gt;&lt;font color=&quot;#ffffff&quot;&gt;Flow&lt;/font&gt;&lt;/h3&gt;" style="text;html=1;strokeColor=none;fillColor=none;align=center;verticalAlign=middle;whiteSpace=wrap;rounded=0;" vertex="1" parent="1">
          <mxGeometry x="460" y="432.5" width="60" height="30" as="geometry" />
        </mxCell>
        <mxCell id="HrMAnOmM2nn3nkN1Qt7s-97" value="&lt;h3&gt;&lt;font color=&quot;#ffffff&quot;&gt;Flow&lt;/font&gt;&lt;/h3&gt;" style="text;html=1;strokeColor=none;fillColor=none;align=center;verticalAlign=middle;whiteSpace=wrap;rounded=0;" vertex="1" parent="1">
          <mxGeometry x="529" y="550" width="60" height="30" as="geometry" />
        </mxCell>
        <mxCell id="HrMAnOmM2nn3nkN1Qt7s-98" value="Compose" style="rounded=0;whiteSpace=wrap;html=1;fillColor=#008a00;fontColor=#ffffff;strokeColor=#005700;" vertex="1" parent="1">
          <mxGeometry x="400" y="70" width="70" height="20" as="geometry" />
        </mxCell>
        <mxCell id="HrMAnOmM2nn3nkN1Qt7s-99" value="&lt;h3&gt;&lt;font color=&quot;#ffffff&quot;&gt;Flow&lt;/font&gt;&lt;/h3&gt;" style="text;html=1;strokeColor=none;fillColor=none;align=center;verticalAlign=middle;whiteSpace=wrap;rounded=0;" vertex="1" parent="1">
          <mxGeometry x="380" y="265" width="60" height="30" as="geometry" />
        </mxCell>
        <mxCell id="HrMAnOmM2nn3nkN1Qt7s-105" value="&lt;h3&gt;&lt;font color=&quot;#ffffff&quot;&gt;Flow&lt;/font&gt;&lt;/h3&gt;" style="text;html=1;strokeColor=none;fillColor=none;align=center;verticalAlign=middle;whiteSpace=wrap;rounded=0;" vertex="1" parent="1">
          <mxGeometry x="529" y="370" width="60" height="30" as="geometry" />
        </mxCell>
        <mxCell id="HrMAnOmM2nn3nkN1Qt7s-106" value="Flow/State" style="rounded=0;whiteSpace=wrap;html=1;fillColor=#1ba1e2;fontColor=#ffffff;strokeColor=#006EAF;" vertex="1" parent="1">
          <mxGeometry x="395" y="190" width="92.25" height="20" as="geometry" />
        </mxCell>
        <mxCell id="HrMAnOmM2nn3nkN1Qt7s-108" value="&lt;h3&gt;&lt;font color=&quot;#ffffff&quot;&gt;Flow&lt;/font&gt;&lt;/h3&gt;" style="text;html=1;strokeColor=none;fillColor=none;align=center;verticalAlign=middle;whiteSpace=wrap;rounded=0;" vertex="1" parent="1">
          <mxGeometry x="300" y="335" width="60" height="30" as="geometry" />
        </mxCell>
        <mxCell id="HrMAnOmM2nn3nkN1Qt7s-118" value="" style="rounded=1;whiteSpace=wrap;html=1;" vertex="1" parent="1">
          <mxGeometry x="580" y="80" width="190" height="130" as="geometry" />
        </mxCell>
        <mxCell id="HrMAnOmM2nn3nkN1Qt7s-119" value="State" style="rounded=0;whiteSpace=wrap;html=1;" vertex="1" parent="1">
          <mxGeometry x="665.75" y="100" width="90.75" height="20" as="geometry" />
        </mxCell>
        <mxCell id="HrMAnOmM2nn3nkN1Qt7s-120" value="Mapper" style="rounded=0;whiteSpace=wrap;html=1;" vertex="1" parent="1">
          <mxGeometry x="665.75" y="130" width="90.75" height="20" as="geometry" />
        </mxCell>
        <mxCell id="HrMAnOmM2nn3nkN1Qt7s-121" value="Navegation" style="rounded=0;whiteSpace=wrap;html=1;" vertex="1" parent="1">
          <mxGeometry x="666.5" y="160" width="90.75" height="30" as="geometry" />
        </mxCell>
        <mxCell id="HrMAnOmM2nn3nkN1Qt7s-122" value="App" style="rounded=0;whiteSpace=wrap;html=1;" vertex="1" parent="1">
          <mxGeometry x="590.5" y="125" width="69" height="30" as="geometry" />
        </mxCell>
      </root>
    </mxGraphModel>
  </diagram>
</mxfile>
